<svg xmlns="http://www.w3.org/2000/svg" version="1.1" xmlns:xlink="http://www.w3.org/1999/xlink" xmlns:svgjs="http://svgjs.dev/svgjs" width="1000" height="1000" viewBox="0 0 1000 1000"><rect width="1000" height="1000" fill="#000000"></rect><g transform="matrix(0.7,0,0,0.7,149.57575757575756,282.1618704453442)"><svg viewBox="0 0 396 247" data-background-color="#ffffff" preserveAspectRatio="xMidYMid meet" height="623" width="1000" xmlns="http://www.w3.org/2000/svg" xmlns:xlink="http://www.w3.org/1999/xlink"><g id="tight-bounds" transform="matrix(1,0,0,1,0.2400000000000091,-0.09999999999999432)"><svg viewBox="0 0 395.52 247.2" height="247.2" width="395.52"><g><svg></svg></g><g><svg viewBox="0 0 395.52 247.2" height="247.2" width="395.52"><mask id="9b6bf18c-11ac-4b21-b3f8-501f0c80765d"><rect width="395.52" height="247.2" fill="white"></rect><g transform="matrix(1,0,0,1,64.01474844934529,37.08)" id="clone"><svg viewBox="0 0 267.4905031013094 173.04" height="173.04" width="267.4905031013094"><g><svg viewBox="0 0 267.4905031013094 173.04" height="173.04" width="267.4905031013094"><g><svg viewBox="0 0 267.4905031013094 173.04" height="173.04" width="267.4905031013094"><g><svg viewBox="0 0 267.4905031013094 173.04" height="173.04" width="267.4905031013094"><g id="SvgjsG3541"><svg viewBox="0 0 267.4905031013094 173.04" height="173.04" width="267.4905031013094" id="SvgjsSvg3540"><g><svg viewBox="0 0 267.4905031013094 173.04" height="173.04" width="267.4905031013094"><g transform="matrix(1,0,0,1,0,0)"><svg width="267.4905031013094" viewBox="2.4499998092651367 -33.78000068664551 57.06999969482422 37.28000068664551" height="173.04" data-palette-color="#093d65"><path d="M15.78 0L5.45 0 5.45-30.33 15.83-30.33Q18.98-30.33 21.04-29.23 23.1-28.13 24.13-26.34 25.15-24.55 25.15-22.53L25.15-22.53Q25.15-19.88 23.7-17.85 22.25-15.83 19.1-15.18L19.1-15.18Q21.13-14.98 22.61-13.85 24.1-12.73 24.9-11.18 25.7-9.63 25.7-8.1L25.7-8.1Q25.7-6.45 25.16-4.98 24.63-3.5 23.45-2.39 22.28-1.28 20.38-0.64 18.48 0 15.78 0L15.78 0ZM7.3-14.4L7.3-1.6 15.83-1.6Q20.15-1.6 21.98-3.46 23.8-5.33 23.8-8.13L23.8-8.13Q23.8-10.95 21.75-12.68 19.7-14.4 15.83-14.4L15.83-14.4 7.3-14.4ZM15.83-28.78L7.3-28.78 7.3-15.93 15.78-15.93Q19.03-15.93 21.14-17.64 23.25-19.35 23.25-22.6L23.25-22.6Q23.25-25.58 21.2-27.18 19.15-28.78 15.83-28.78L15.83-28.78ZM45.42 0.5L45.42 0.5Q41.9 0.5 38.95-1.3 36-3.1 34.23-6.49 32.47-9.88 32.47-14.63L32.47-14.63Q32.47-18.8 33.66-21.85 34.85-24.9 36.86-26.88 38.87-28.85 41.41-29.81 43.95-30.78 46.62-30.78L46.62-30.78Q49.4-30.78 51.84-29.73 54.27-28.68 56.52-26.43L56.52-26.43 55.25-25.23Q53.12-27.3 50.96-28.19 48.8-29.08 46.62-29.08L46.62-29.08Q43.37-29.08 40.57-27.34 37.77-25.6 36.07-22.36 34.37-19.13 34.37-14.63L34.37-14.63Q34.37-10.83 35.67-7.8 36.97-4.78 39.45-3.01 41.92-1.25 45.4-1.25L45.4-1.25Q47.87-1.25 49.84-2.41 51.8-3.58 52.94-6.08 54.07-8.58 54.07-12.55L54.07-12.55 55.17-12.55Q55.17-8.6 54.22-5.66 53.27-2.73 51.14-1.11 49 0.5 45.42 0.5ZM55.97 0L54.62 0 54.07-7.65 54.07-12.55 45.55-12.9 45.55-14.43 55.97-14.43 55.97 0Z" opacity="1" transform="matrix(1,0,0,1,0,0)" fill="black" class="wordmark-text-0" id="SvgjsPath3539" stroke-width="5" stroke="black" stroke-linejoin="round"></path></svg></g></svg></g></svg></g></svg></g><g></g></svg></g></svg></g></svg></g></mask><g mask="url(#9b6bf18c-11ac-4b21-b3f8-501f0c80765d)"><g><path xmlns="http://www.w3.org/2000/svg" d="M199.431 247.22h-84.207v-247.24h84.615c17.119 0 31.275 2.989 42.47 8.966 11.195 5.978 19.591 13.831 25.189 23.559 5.543 9.728 8.315 20.08 8.314 31.058v0c0 14.401-3.94 27.118-11.82 38.15-7.88 10.978-20.379 18.233-37.497 21.765v0c11.032 1.087 20.569 4.701 28.612 10.841 8.097 6.087 14.32 13.342 18.668 21.765 4.348 8.423 6.521 16.792 6.521 25.108v0c0 8.967-1.467 17.445-4.402 25.433-2.88 8.043-7.527 15.081-13.939 21.113-6.358 6.032-14.7 10.787-25.026 14.265-10.325 3.478-22.825 5.217-37.498 5.217zM130.305 129.836v104.342h69.534c23.477 0 40.188-5.054 50.133-15.162 9.891-10.162 14.836-22.852 14.836-38.069v0c0-15.325-5.57-27.689-16.711-37.09-11.141-9.347-27.227-14.021-48.258-14.021v0zM199.839 12.615h-69.534v104.749h69.126c17.662 0 32.226-4.646 43.693-13.939 11.467-9.293 17.2-22.77 17.2-40.433v0c0-16.195-5.57-28.64-16.711-37.335-11.141-8.695-25.732-13.043-43.774-13.042z" fill="#ffffff" fill-rule="nonzero" stroke="none" stroke-width="1" stroke-linecap="butt" stroke-linejoin="miter" stroke-miterlimit="10" stroke-dasharray="" stroke-dashoffset="0" font-family="none" font-weight="none" font-size="none" text-anchor="none" style="mix-blend-mode: normal" data-fill-palette-color="tertiary"></path></g></g><g transform="matrix(1,0,0,1,64.01474844934529,37.08)"><svg viewBox="0 0 267.4905031013094 173.04" height="173.04" width="267.4905031013094"><g><svg viewBox="0 0 267.4905031013094 173.04" height="173.04" width="267.4905031013094"><g><svg viewBox="0 0 267.4905031013094 173.04" height="173.04" width="267.4905031013094"><g><svg viewBox="0 0 267.4905031013094 173.04" height="173.04" width="267.4905031013094"><g id="textblocktransform"><svg viewBox="0 0 267.4905031013094 173.04" height="173.04" width="267.4905031013094" id="textblock"><g><svg viewBox="0 0 267.4905031013094 173.04" height="173.04" width="267.4905031013094"><g transform="matrix(1,0,0,1,0,0)"><svg width="267.4905031013094" viewBox="2.4499998092651367 -33.78000068664551 57.06999969482422 37.28000068664551" height="173.04" data-palette-color="#093d65"><path d="M15.78 0L5.45 0 5.45-30.33 15.83-30.33Q18.98-30.33 21.04-29.23 23.1-28.13 24.13-26.34 25.15-24.55 25.15-22.53L25.15-22.53Q25.15-19.88 23.7-17.85 22.25-15.83 19.1-15.18L19.1-15.18Q21.13-14.98 22.61-13.85 24.1-12.73 24.9-11.18 25.7-9.63 25.7-8.1L25.7-8.1Q25.7-6.45 25.16-4.98 24.63-3.5 23.45-2.39 22.28-1.28 20.38-0.64 18.48 0 15.78 0L15.78 0ZM7.3-14.4L7.3-1.6 15.83-1.6Q20.15-1.6 21.98-3.46 23.8-5.33 23.8-8.13L23.8-8.13Q23.8-10.95 21.75-12.68 19.7-14.4 15.83-14.4L15.83-14.4 7.3-14.4ZM15.83-28.78L7.3-28.78 7.3-15.93 15.78-15.93Q19.03-15.93 21.14-17.64 23.25-19.35 23.25-22.6L23.25-22.6Q23.25-25.58 21.2-27.18 19.15-28.78 15.83-28.78L15.83-28.78ZM45.42 0.5L45.42 0.5Q41.9 0.5 38.95-1.3 36-3.1 34.23-6.49 32.47-9.88 32.47-14.63L32.47-14.63Q32.47-18.8 33.66-21.85 34.85-24.9 36.86-26.88 38.87-28.85 41.41-29.81 43.95-30.78 46.62-30.78L46.62-30.78Q49.4-30.78 51.84-29.73 54.27-28.68 56.52-26.43L56.52-26.43 55.25-25.23Q53.12-27.3 50.96-28.19 48.8-29.08 46.62-29.08L46.62-29.08Q43.37-29.08 40.57-27.34 37.77-25.6 36.07-22.36 34.37-19.13 34.37-14.63L34.37-14.63Q34.37-10.83 35.67-7.8 36.97-4.78 39.45-3.01 41.92-1.25 45.4-1.25L45.4-1.25Q47.87-1.25 49.84-2.41 51.8-3.58 52.94-6.08 54.07-8.58 54.07-12.55L54.07-12.55 55.17-12.55Q55.17-8.6 54.22-5.66 53.27-2.73 51.14-1.11 49 0.5 45.42 0.5ZM55.97 0L54.62 0 54.07-7.65 54.07-12.55 45.55-12.9 45.55-14.43 55.97-14.43 55.97 0Z" opacity="1" transform="matrix(1,0,0,1,0,0)" fill="#ffffff" class="wordmark-text-0" data-fill-palette-color="primary" id="text-0"></path></svg></g></svg></g></svg></g></svg></g><g></g></svg></g></svg></g></svg></g></svg></g><defs></defs></svg><rect width="395.52" height="247.2" fill="none" stroke="none" visibility="hidden"></rect></g></svg></g></svg>