<?xml version="1.0" encoding="UTF-8"?>
<!DOCTYPE svg PUBLIC "-//W3C//DTD SVG 1.1//EN" "http://www.w3.org/Graphics/SVG/1.1/DTD/svg11.dtd">
<svg xmlns="http://www.w3.org/2000/svg" version="1.1" width="2000px" height="1247px" style="shape-rendering:geometricPrecision; text-rendering:geometricPrecision; image-rendering:optimizeQuality; fill-rule:evenodd; clip-rule:evenodd" xmlns:xlink="http://www.w3.org/1999/xlink">
<g><path style="opacity:0.986" fill="#fefffe" d="M 582.5,-0.5 C 740.833,-0.5 899.167,-0.5 1057.5,-0.5C 1109.42,2.81331 1159.42,14.6466 1207.5,35C 1266.08,61.5873 1312.91,101.754 1348,155.5C 1355.95,169.062 1363.11,183.062 1369.5,197.5C 1343.77,198.111 1318.27,200.778 1293,205.5C 1270.29,162.126 1237.46,128.626 1194.5,105C 1145.97,79.6901 1094.3,66.0234 1039.5,64C 912.834,63.5 786.167,63.3333 659.5,63.5C 659.5,112.167 659.5,160.833 659.5,209.5C 633.847,208.588 608.181,208.255 582.5,208.5C 582.5,138.833 582.5,69.1667 582.5,-0.5 Z"/></g>
<g><path style="opacity:0.974" fill="#fefffe" d="M 1339.5,256.5 C 1441.96,250.525 1528.3,284.525 1598.5,358.5C 1588.51,368.322 1578.34,377.988 1568,387.5C 1535.84,354.693 1498.34,329.859 1455.5,313C 1356.92,280.984 1267.92,297.984 1188.5,364C 1122.7,426.111 1086.87,502.611 1081,593.5C 1075.08,657.542 1082.74,719.875 1104,780.5C 1124.71,837.193 1160.21,882.026 1210.5,915C 1256.46,941.259 1305.79,951.925 1358.5,947C 1436.34,938.141 1489.51,897.308 1518,824.5C 1533.88,779.205 1541.04,732.539 1539.5,684.5C 1473.53,681.39 1407.53,678.557 1341.5,676C 1340.51,663.914 1340.18,651.747 1340.5,639.5C 1422.17,639.5 1503.83,639.5 1585.5,639.5C 1585.5,752.5 1585.5,865.5 1585.5,978.5C 1574.5,978.5 1563.5,978.5 1552.5,978.5C 1550,935.444 1546.83,892.444 1543,849.5C 1528.68,894.341 1502.51,930.508 1464.5,958C 1436.83,974.781 1406.83,984.781 1374.5,988C 1272.27,998.385 1186.77,965.885 1118,890.5C 1066.15,827.058 1038.48,754.058 1035,671.5C 1030.75,611.201 1036.42,551.867 1052,493.5C 1070.5,428.625 1105,374.125 1155.5,330C 1209.28,286.954 1270.62,262.454 1339.5,256.5 Z"/></g>
<g><path style="opacity:0.977" fill="#fefffe" d="M 400.5,266.5 C 488.167,266.333 575.834,266.5 663.5,267C 722.679,267.597 773.512,288.097 816,328.5C 854.706,372.29 869.706,423.29 861,481.5C 847.438,558.73 802.272,605.563 725.5,622C 769.157,627.743 805.324,647.243 834,680.5C 874.145,728.88 885.812,783.547 869,844.5C 852.943,900.225 817.777,938.392 763.5,959C 729.926,971.152 695.259,977.485 659.5,978C 573.167,978.5 486.834,978.667 400.5,978.5C 400.5,741.167 400.5,503.833 400.5,266.5 Z M 444.5,303.5 C 514.501,303.333 584.501,303.5 654.5,304C 699.276,304.368 739.276,318.035 774.5,345C 804.508,372.826 818.841,407.326 817.5,448.5C 818.194,514.658 788.528,561.158 728.5,588C 708.3,596.3 687.3,601.3 665.5,603C 591.844,604.426 518.178,604.926 444.5,604.5C 444.5,504.167 444.5,403.833 444.5,303.5 Z M 444.5,640.5 C 514.834,640.333 585.167,640.5 655.5,641C 694.094,641.065 730.427,650.065 764.5,668C 816.057,701.899 837.557,749.733 829,811.5C 822.857,855.243 801.69,889.41 765.5,914C 735.812,929.673 704.145,938.006 670.5,939C 595.167,939.5 519.834,939.667 444.5,939.5C 444.5,839.833 444.5,740.167 444.5,640.5 Z"/></g>
<g><path style="opacity:0.978" fill="#fefffe" d="M 1349.5,354.5 C 1363.2,354.216 1376.87,354.716 1390.5,356C 1386.05,422.442 1362.21,481.275 1319,532.5C 1279.79,573.204 1232.62,600.704 1177.5,615C 1167.93,617.745 1158.27,620.078 1148.5,622C 1197.49,626.881 1241.99,643.381 1282,671.5C 1285.56,712.724 1308.06,733.558 1349.5,734C 1381.09,773.691 1402.09,818.524 1412.5,868.5C 1412.31,870.58 1411.31,872.08 1409.5,873C 1386.66,884.96 1362.33,890.793 1336.5,890.5C 1329.91,810.794 1293.25,749.294 1226.5,706C 1199.29,689.651 1170.29,677.484 1139.5,669.5C 1138.75,668.624 1138.25,667.624 1138,666.5C 1135.85,634.022 1137.18,601.689 1142,569.5C 1184.92,553.553 1222.25,529.219 1254,496.5C 1286.93,457.948 1306.26,413.281 1312,362.5C 1314.85,360.655 1318.02,359.489 1321.5,359C 1330.94,357.249 1340.27,355.749 1349.5,354.5 Z"/></g>
<g><path style="opacity:0.983" fill="#fefffe" d="M 582.5,361.5 C 608.167,361.5 633.833,361.5 659.5,361.5C 659.5,422.833 659.5,484.167 659.5,545.5C 633.859,546.463 608.192,546.796 582.5,546.5C 582.5,484.833 582.5,423.167 582.5,361.5 Z"/></g>
<g><path style="opacity:0.986" fill="#fefffe" d="M 876.5,591.5 C 910.167,591.5 943.833,591.5 977.5,591.5C 976.641,612.487 976.308,633.487 976.5,654.5C 946.159,654.833 915.826,654.5 885.5,653.5C 875.904,641.235 865.237,629.902 853.5,619.5C 861.969,610.71 869.636,601.377 876.5,591.5 Z"/></g>
<g><path style="opacity:0.982" fill="#fefffe" d="M 582.5,698.5 C 608.167,698.5 633.833,698.5 659.5,698.5C 659.5,759.5 659.5,820.5 659.5,881.5C 633.866,882.473 608.199,882.806 582.5,882.5C 582.5,821.167 582.5,759.833 582.5,698.5 Z"/></g>
<g><path style="opacity:0.986" fill="#fefffe" d="M 1060.5,1246.5 C 901.167,1246.5 741.833,1246.5 582.5,1246.5C 582.5,1176.17 582.5,1105.83 582.5,1035.5C 608.167,1035.5 633.833,1035.5 659.5,1035.5C 659.5,1083.83 659.5,1132.17 659.5,1180.5C 787.834,1180.67 916.167,1180.5 1044.5,1180C 1094.44,1178.73 1142.77,1169.4 1189.5,1152C 1240.52,1130.65 1279.19,1095.65 1305.5,1047C 1334.95,1048.48 1364.28,1047.31 1393.5,1043.5C 1371.5,1102.67 1333.84,1149.17 1280.5,1183C 1230.45,1212.91 1176.45,1231.91 1118.5,1240C 1099.06,1242.59 1079.73,1244.75 1060.5,1246.5 Z"/></g>
</svg>
